<svg viewBox="0 0 512 512" xmlns="http://www.w3.org/2000/svg"><path d="m256 512c140.960938 0 256-115.050781 256-256 0-140.960938-115.050781-256-256-256-140.960938 0-256 115.050781-256 256 0 140.960938 115.050781 256 256 256zm0-482c124.617188 0 226 101.382812 226 226s-101.382812 226-226 226-226-101.382812-226-226 101.382812-226 226-226zm0 0"/><path d="m196 361c28.046875 0 54.414062-10.921875 74.246094-30.753906l-21.214844-21.214844c-14.164062 14.167969-33 21.96875-53.03125 21.96875-41.355469 0-75-33.644531-75-75s33.644531-75 75-75c45.558594 0 60.523438 33.144531 79.757812 87.730469 7.554688 21.445312 15.367188 43.621093 27.179688 60.570312 14.65625 21.035157 34.191406 31.699219 58.0625 31.699219 33.085938 0 60-26.914062 60-60 0-31.613281-24.574219-57.59375-55.625-59.84375v-.15625h-4.375c-16.542969 0-30-13.457031-30-30s13.457031-30 30-30 30 13.457031 30 30h30c0-33.085938-26.914062-60-60-60s-60 26.914062-60 60c0 32.648438 26.210938 59.289062 58.691406 59.984375l1.308594.015625c16.542969 0 30 13.457031 30 30s-13.457031 30-30 30c-29.976562 0-41.167969-27.449219-56.949219-72.238281-16.914062-48.011719-37.964843-107.761719-108.050781-107.761719-57.898438 0-105 47.101562-105 105s47.101562 105 105 105zm0 0"/></svg>