<svg viewBox="0 0 512 512" xmlns="http://www.w3.org/2000/svg"><path d="m256 0c-140.960938 0-256 115.050781-256 256 0 140.960938 115.050781 256 256 256 140.960938 0 256-115.050781 256-256 0-140.960938-115.050781-256-256-256zm0 482c-124.617188 0-226-101.382812-226-226s101.382812-226 226-226 226 101.382812 226 226-101.382812 226-226 226zm0 0"/><path d="m99.066406 148.667969 5.195313 29.546875c109.394531-19.234375 220.378906-4.640625 317.398437 37.136718l11.863282-27.550781c-102.253907-44.035156-219.179688-59.402343-334.457032-39.132812zm0 0"/><path d="m103.832031 239.34375-.765625.152344 5.890625 29.417968.757813-.152343c95.839844-19.128907 197.550781-7.15625 286.394531 33.710937l12.535156-27.253906c-94.550781-43.496094-202.796875-56.238281-304.8125-35.875zm0 0"/><path d="m129.703125 326.050781 5.277344 29.53125c73.082031-13.058593 147.707031-4.347656 215.808593 25.203125l11.941407-27.523437c-73.539063-31.902344-154.121094-41.3125-233.027344-27.210938zm0 0"/></svg>